%TF.GenerationSoftware,KiCad,Pcbnew,(6.0.5)*%
%TF.CreationDate,2022-11-10T13:27:30+10:30*%
%TF.ProjectId,1541-II PS,31353431-2d49-4492-9050-532e6b696361,rev?*%
%TF.SameCoordinates,Original*%
%TF.FileFunction,Copper,L2,Bot*%
%TF.FilePolarity,Positive*%
%FSLAX46Y46*%
G04 Gerber Fmt 4.6, Leading zero omitted, Abs format (unit mm)*
G04 Created by KiCad (PCBNEW (6.0.5)) date 2022-11-10 13:27:30*
%MOMM*%
%LPD*%
G01*
G04 APERTURE LIST*
%TA.AperFunction,ComponentPad*%
%ADD10R,1.700000X1.700000*%
%TD*%
%TA.AperFunction,ComponentPad*%
%ADD11O,1.700000X1.700000*%
%TD*%
%TA.AperFunction,ConnectorPad*%
%ADD12C,5.500000*%
%TD*%
%TA.AperFunction,ComponentPad*%
%ADD13C,3.600000*%
%TD*%
%TA.AperFunction,ComponentPad*%
%ADD14R,1.950000X1.950000*%
%TD*%
%TA.AperFunction,ComponentPad*%
%ADD15C,1.950000*%
%TD*%
%TA.AperFunction,ComponentPad*%
%ADD16R,2.600000X2.600000*%
%TD*%
%TA.AperFunction,ComponentPad*%
%ADD17C,2.600000*%
%TD*%
%TA.AperFunction,ComponentPad*%
%ADD18C,2.300000*%
%TD*%
%TA.AperFunction,ViaPad*%
%ADD19C,0.800000*%
%TD*%
%TA.AperFunction,Conductor*%
%ADD20C,1.250000*%
%TD*%
%TA.AperFunction,Conductor*%
%ADD21C,0.250000*%
%TD*%
G04 APERTURE END LIST*
D10*
%TO.P,J6,1*%
%TO.N,N/C*%
X50165000Y-65786000D03*
D11*
%TO.P,J6,2*%
X50165000Y-68326000D03*
%TO.P,J6,3*%
%TO.N,GND*%
X50165000Y-70866000D03*
%TD*%
D12*
%TO.P,REF\u002A\u002A,1*%
%TO.N,N/C*%
X143510000Y-54483000D03*
D13*
X143510000Y-54483000D03*
%TD*%
D14*
%TO.P,J1,1*%
%TO.N,N/C*%
X59770000Y-62912000D03*
D15*
%TO.P,J1,2*%
%TO.N,GND*%
X62270000Y-65412000D03*
%TO.P,J1,3*%
%TO.N,N/C*%
X67270000Y-65412000D03*
%TO.P,J1,4*%
X69770000Y-62912000D03*
%TO.P,J1,E1*%
%TO.N,GND*%
X67270000Y-52912000D03*
%TO.P,J1,E2*%
X62270000Y-52912000D03*
%TD*%
D16*
%TO.P,J5,1*%
%TO.N,N/C*%
X89154000Y-73965000D03*
D17*
%TO.P,J5,2*%
%TO.N,GND*%
X94234000Y-73965000D03*
%TO.P,J5,3*%
X99314000Y-73965000D03*
%TO.P,J5,4*%
%TO.N,N/C*%
X104394000Y-73965000D03*
%TD*%
D18*
%TO.P,F1,1*%
%TO.N,N/C*%
X61251000Y-73914000D03*
X66451000Y-73914000D03*
%TO.P,F1,2*%
X81751000Y-73914000D03*
X76551000Y-73914000D03*
%TD*%
%TO.P,F2,1*%
%TO.N,N/C*%
X111924000Y-73914000D03*
X117124000Y-73914000D03*
%TO.P,F2,2*%
X132424000Y-73914000D03*
X127224000Y-73914000D03*
%TD*%
D12*
%TO.P,REF\u002A\u002A,1*%
%TO.N,N/C*%
X50038000Y-54483000D03*
D13*
X50038000Y-54483000D03*
%TD*%
D12*
%TO.P,REF\u002A\u002A,1*%
%TO.N,N/C*%
X143510000Y-77597000D03*
D13*
X143510000Y-77597000D03*
%TD*%
%TO.P,REF\u002A\u002A,1*%
%TO.N,N/C*%
X50038000Y-77597000D03*
D12*
X50038000Y-77597000D03*
%TD*%
D14*
%TO.P,J3,1*%
%TO.N,N/C*%
X102442000Y-62912000D03*
D15*
%TO.P,J3,2*%
%TO.N,GND*%
X104942000Y-65412000D03*
%TO.P,J3,3*%
%TO.N,N/C*%
X109942000Y-65412000D03*
%TO.P,J3,4*%
X112442000Y-62912000D03*
%TO.P,J3,E1*%
%TO.N,GND*%
X109942000Y-52912000D03*
%TO.P,J3,E2*%
X104942000Y-52912000D03*
%TD*%
D14*
%TO.P,J2,1*%
%TO.N,N/C*%
X81106000Y-62912000D03*
D15*
%TO.P,J2,2*%
%TO.N,GND*%
X83606000Y-65412000D03*
%TO.P,J2,3*%
%TO.N,N/C*%
X88606000Y-65412000D03*
%TO.P,J2,4*%
X91106000Y-62912000D03*
%TO.P,J2,E1*%
%TO.N,GND*%
X88606000Y-52912000D03*
%TO.P,J2,E2*%
X83606000Y-52912000D03*
%TD*%
D14*
%TO.P,J4,1*%
%TO.N,N/C*%
X123778000Y-62912000D03*
D15*
%TO.P,J4,2*%
%TO.N,GND*%
X126278000Y-65412000D03*
%TO.P,J4,3*%
%TO.N,N/C*%
X131278000Y-65412000D03*
%TO.P,J4,4*%
X133778000Y-62912000D03*
%TO.P,J4,E1*%
%TO.N,GND*%
X131278000Y-52912000D03*
%TO.P,J4,E2*%
X126278000Y-52912000D03*
%TD*%
D19*
%TO.N,*%
X52705000Y-60388000D03*
%TD*%
D20*
%TO.N,*%
X133778000Y-62912000D02*
X133778000Y-72560000D01*
X72230000Y-60452000D02*
X88646000Y-60452000D01*
X91106000Y-62912000D02*
X96901000Y-68707000D01*
X112442000Y-62912000D02*
X114902000Y-60452000D01*
D21*
X52705000Y-60388000D02*
X67246000Y-60388000D01*
X67246000Y-60388000D02*
X69770000Y-62912000D01*
D20*
X131318000Y-60452000D02*
X133778000Y-62912000D01*
X133778000Y-72560000D02*
X132424000Y-73914000D01*
X69770000Y-62912000D02*
X72230000Y-60452000D01*
X127224000Y-73914000D02*
X132424000Y-73914000D01*
X88646000Y-60452000D02*
X91106000Y-62912000D01*
X114902000Y-60452000D02*
X131318000Y-60452000D01*
X96901000Y-68707000D02*
X122017000Y-68707000D01*
X122017000Y-68707000D02*
X127224000Y-73914000D01*
%TD*%
M02*
