M48
; DRILL file {KiCad (6.0.5)} date Thu Nov 10 13:27:32 2022
; FORMAT={-:-/ absolute / inch / decimal}
; #@! TF.CreationDate,2022-11-10T13:27:32+10:30
; #@! TF.GenerationSoftware,Kicad,Pcbnew,(6.0.5)
; #@! TF.FileFunction,Plated,1,2,PTH
FMAT,2
INCH
; #@! TA.AperFunction,Plated,PTH,ViaDrill
T1C0.0157
; #@! TA.AperFunction,Plated,PTH,ComponentDrill
T2C0.0394
; #@! TA.AperFunction,Plated,PTH,ComponentDrill
T3C0.0512
; #@! TA.AperFunction,Plated,PTH,ComponentDrill
T4C0.1260
%
G90
G05
T1
X2.075Y-2.3775
T2
X1.975Y-2.59
X1.975Y-2.69
X1.975Y-2.79
T3
X2.3531Y-2.4769
X2.4115Y-2.91
X2.4516Y-2.0831
X2.4516Y-2.5753
X2.6162Y-2.91
X2.6484Y-2.0831
X2.6484Y-2.5753
X2.7469Y-2.4769
X3.0138Y-2.91
X3.1931Y-2.4769
X3.2185Y-2.91
X3.2916Y-2.0831
X3.2916Y-2.5753
X3.4884Y-2.0831
X3.4884Y-2.5753
X3.51Y-2.912
X3.5869Y-2.4769
X3.71Y-2.912
X3.91Y-2.912
X4.0331Y-2.4769
X4.11Y-2.912
X4.1316Y-2.0831
X4.1316Y-2.5753
X4.3284Y-2.0831
X4.3284Y-2.5753
X4.4065Y-2.91
X4.4269Y-2.4769
X4.6112Y-2.91
X4.8731Y-2.4769
X4.9716Y-2.0831
X4.9716Y-2.5753
X5.0088Y-2.91
X5.1684Y-2.0831
X5.1684Y-2.5753
X5.2135Y-2.91
X5.2669Y-2.4769
T4
X1.97Y-2.145
X1.97Y-3.055
X5.65Y-2.145
X5.65Y-3.055
T0
M30
