%TF.GenerationSoftware,KiCad,Pcbnew,(6.0.5)*%
%TF.CreationDate,2022-11-10T13:27:30+10:30*%
%TF.ProjectId,1541-II PS,31353431-2d49-4492-9050-532e6b696361,rev?*%
%TF.SameCoordinates,Original*%
%TF.FileFunction,Legend,Top*%
%TF.FilePolarity,Positive*%
%FSLAX46Y46*%
G04 Gerber Fmt 4.6, Leading zero omitted, Abs format (unit mm)*
G04 Created by KiCad (PCBNEW (6.0.5)) date 2022-11-10 13:27:30*
%MOMM*%
%LPD*%
G01*
G04 APERTURE LIST*
%ADD10C,0.150000*%
%ADD11C,0.120000*%
%ADD12C,0.127000*%
%ADD13C,0.200000*%
G04 APERTURE END LIST*
D10*
X103774952Y-80716380D02*
X103203523Y-80716380D01*
X103489238Y-80716380D02*
X103489238Y-79716380D01*
X103394000Y-79859238D01*
X103298761Y-79954476D01*
X103203523Y-80002095D01*
X104155904Y-79811619D02*
X104203523Y-79764000D01*
X104298761Y-79716380D01*
X104536857Y-79716380D01*
X104632095Y-79764000D01*
X104679714Y-79811619D01*
X104727333Y-79906857D01*
X104727333Y-80002095D01*
X104679714Y-80144952D01*
X104108285Y-80716380D01*
X104727333Y-80716380D01*
X105013047Y-79716380D02*
X105346380Y-80716380D01*
X105679714Y-79716380D01*
X55943571Y-72398142D02*
X54515000Y-72398142D01*
X54372142Y-73826714D01*
X54515000Y-73683857D01*
X54800714Y-73541000D01*
X55515000Y-73541000D01*
X55800714Y-73683857D01*
X55943571Y-73826714D01*
X56086428Y-74112428D01*
X56086428Y-74826714D01*
X55943571Y-75112428D01*
X55800714Y-75255285D01*
X55515000Y-75398142D01*
X54800714Y-75398142D01*
X54515000Y-75255285D01*
X54372142Y-75112428D01*
X56943571Y-72398142D02*
X57943571Y-75398142D01*
X58943571Y-72398142D01*
X136318857Y-75271142D02*
X134604571Y-75271142D01*
X135461714Y-75271142D02*
X135461714Y-72271142D01*
X135176000Y-72699714D01*
X134890285Y-72985428D01*
X134604571Y-73128285D01*
X137461714Y-72556857D02*
X137604571Y-72414000D01*
X137890285Y-72271142D01*
X138604571Y-72271142D01*
X138890285Y-72414000D01*
X139033142Y-72556857D01*
X139176000Y-72842571D01*
X139176000Y-73128285D01*
X139033142Y-73556857D01*
X137318857Y-75271142D01*
X139176000Y-75271142D01*
X140033142Y-72271142D02*
X141033142Y-75271142D01*
X142033142Y-72271142D01*
X88963523Y-79716380D02*
X88487333Y-79716380D01*
X88439714Y-80192571D01*
X88487333Y-80144952D01*
X88582571Y-80097333D01*
X88820666Y-80097333D01*
X88915904Y-80144952D01*
X88963523Y-80192571D01*
X89011142Y-80287809D01*
X89011142Y-80525904D01*
X88963523Y-80621142D01*
X88915904Y-80668761D01*
X88820666Y-80716380D01*
X88582571Y-80716380D01*
X88487333Y-80668761D01*
X88439714Y-80621142D01*
X89296857Y-79716380D02*
X89630190Y-80716380D01*
X89963523Y-79716380D01*
X56612357Y-78719071D02*
X55755214Y-78719071D01*
X56183785Y-78719071D02*
X56183785Y-77219071D01*
X56040928Y-77433357D01*
X55898071Y-77576214D01*
X55755214Y-77647642D01*
X57969500Y-77219071D02*
X57255214Y-77219071D01*
X57183785Y-77933357D01*
X57255214Y-77861928D01*
X57398071Y-77790500D01*
X57755214Y-77790500D01*
X57898071Y-77861928D01*
X57969500Y-77933357D01*
X58040928Y-78076214D01*
X58040928Y-78433357D01*
X57969500Y-78576214D01*
X57898071Y-78647642D01*
X57755214Y-78719071D01*
X57398071Y-78719071D01*
X57255214Y-78647642D01*
X57183785Y-78576214D01*
X59326642Y-77719071D02*
X59326642Y-78719071D01*
X58969500Y-77147642D02*
X58612357Y-78219071D01*
X59540928Y-78219071D01*
X60898071Y-78719071D02*
X60040928Y-78719071D01*
X60469500Y-78719071D02*
X60469500Y-77219071D01*
X60326642Y-77433357D01*
X60183785Y-77576214D01*
X60040928Y-77647642D01*
X61540928Y-78147642D02*
X62683785Y-78147642D01*
X63398071Y-78719071D02*
X63398071Y-77219071D01*
X64112357Y-78719071D02*
X64112357Y-77219071D01*
X65898071Y-77147642D02*
X64612357Y-79076214D01*
X67183785Y-78719071D02*
X66326642Y-78719071D01*
X66755214Y-78719071D02*
X66755214Y-77219071D01*
X66612357Y-77433357D01*
X66469500Y-77576214D01*
X66326642Y-77647642D01*
X68540928Y-77219071D02*
X67826642Y-77219071D01*
X67755214Y-77933357D01*
X67826642Y-77861928D01*
X67969500Y-77790500D01*
X68326642Y-77790500D01*
X68469500Y-77861928D01*
X68540928Y-77933357D01*
X68612357Y-78076214D01*
X68612357Y-78433357D01*
X68540928Y-78576214D01*
X68469500Y-78647642D01*
X68326642Y-78719071D01*
X67969500Y-78719071D01*
X67826642Y-78647642D01*
X67755214Y-78576214D01*
X69469500Y-77861928D02*
X69326642Y-77790500D01*
X69255214Y-77719071D01*
X69183785Y-77576214D01*
X69183785Y-77504785D01*
X69255214Y-77361928D01*
X69326642Y-77290500D01*
X69469500Y-77219071D01*
X69755214Y-77219071D01*
X69898071Y-77290500D01*
X69969500Y-77361928D01*
X70040928Y-77504785D01*
X70040928Y-77576214D01*
X69969500Y-77719071D01*
X69898071Y-77790500D01*
X69755214Y-77861928D01*
X69469500Y-77861928D01*
X69326642Y-77933357D01*
X69255214Y-78004785D01*
X69183785Y-78147642D01*
X69183785Y-78433357D01*
X69255214Y-78576214D01*
X69326642Y-78647642D01*
X69469500Y-78719071D01*
X69755214Y-78719071D01*
X69898071Y-78647642D01*
X69969500Y-78576214D01*
X70040928Y-78433357D01*
X70040928Y-78147642D01*
X69969500Y-78004785D01*
X69898071Y-77933357D01*
X69755214Y-77861928D01*
X71469500Y-78719071D02*
X70612357Y-78719071D01*
X71040928Y-78719071D02*
X71040928Y-77219071D01*
X70898071Y-77433357D01*
X70755214Y-77576214D01*
X70612357Y-77647642D01*
X73255214Y-78719071D02*
X73255214Y-77219071D01*
X73826642Y-77219071D01*
X73969500Y-77290500D01*
X74040928Y-77361928D01*
X74112357Y-77504785D01*
X74112357Y-77719071D01*
X74040928Y-77861928D01*
X73969500Y-77933357D01*
X73826642Y-78004785D01*
X73255214Y-78004785D01*
X74969500Y-78719071D02*
X74826642Y-78647642D01*
X74755214Y-78576214D01*
X74683785Y-78433357D01*
X74683785Y-78004785D01*
X74755214Y-77861928D01*
X74826642Y-77790500D01*
X74969500Y-77719071D01*
X75183785Y-77719071D01*
X75326642Y-77790500D01*
X75398071Y-77861928D01*
X75469500Y-78004785D01*
X75469500Y-78433357D01*
X75398071Y-78576214D01*
X75326642Y-78647642D01*
X75183785Y-78719071D01*
X74969500Y-78719071D01*
X75969500Y-77719071D02*
X76255214Y-78719071D01*
X76540928Y-78004785D01*
X76826642Y-78719071D01*
X77112357Y-77719071D01*
X78255214Y-78647642D02*
X78112357Y-78719071D01*
X77826642Y-78719071D01*
X77683785Y-78647642D01*
X77612357Y-78504785D01*
X77612357Y-77933357D01*
X77683785Y-77790500D01*
X77826642Y-77719071D01*
X78112357Y-77719071D01*
X78255214Y-77790500D01*
X78326642Y-77933357D01*
X78326642Y-78076214D01*
X77612357Y-78219071D01*
X78969500Y-78719071D02*
X78969500Y-77719071D01*
X78969500Y-78004785D02*
X79040928Y-77861928D01*
X79112357Y-77790500D01*
X79255214Y-77719071D01*
X79398071Y-77719071D01*
X55826642Y-81134071D02*
X55826642Y-79634071D01*
X56183785Y-79634071D01*
X56398071Y-79705500D01*
X56540928Y-79848357D01*
X56612357Y-79991214D01*
X56683785Y-80276928D01*
X56683785Y-80491214D01*
X56612357Y-80776928D01*
X56540928Y-80919785D01*
X56398071Y-81062642D01*
X56183785Y-81134071D01*
X55826642Y-81134071D01*
X57326642Y-81134071D02*
X57326642Y-80134071D01*
X57326642Y-79634071D02*
X57255214Y-79705500D01*
X57326642Y-79776928D01*
X57398071Y-79705500D01*
X57326642Y-79634071D01*
X57326642Y-79776928D01*
X57969500Y-81062642D02*
X58112357Y-81134071D01*
X58398071Y-81134071D01*
X58540928Y-81062642D01*
X58612357Y-80919785D01*
X58612357Y-80848357D01*
X58540928Y-80705500D01*
X58398071Y-80634071D01*
X58183785Y-80634071D01*
X58040928Y-80562642D01*
X57969500Y-80419785D01*
X57969500Y-80348357D01*
X58040928Y-80205500D01*
X58183785Y-80134071D01*
X58398071Y-80134071D01*
X58540928Y-80205500D01*
X59040928Y-80134071D02*
X59612357Y-80134071D01*
X59255214Y-79634071D02*
X59255214Y-80919785D01*
X59326642Y-81062642D01*
X59469500Y-81134071D01*
X59612357Y-81134071D01*
X60112357Y-81134071D02*
X60112357Y-80134071D01*
X60112357Y-80419785D02*
X60183785Y-80276928D01*
X60255214Y-80205500D01*
X60398071Y-80134071D01*
X60540928Y-80134071D01*
X61040928Y-81134071D02*
X61040928Y-80134071D01*
X61040928Y-79634071D02*
X60969500Y-79705500D01*
X61040928Y-79776928D01*
X61112357Y-79705500D01*
X61040928Y-79634071D01*
X61040928Y-79776928D01*
X61755214Y-81134071D02*
X61755214Y-79634071D01*
X61755214Y-80205500D02*
X61898071Y-80134071D01*
X62183785Y-80134071D01*
X62326642Y-80205500D01*
X62398071Y-80276928D01*
X62469500Y-80419785D01*
X62469500Y-80848357D01*
X62398071Y-80991214D01*
X62326642Y-81062642D01*
X62183785Y-81134071D01*
X61898071Y-81134071D01*
X61755214Y-81062642D01*
X63755214Y-80134071D02*
X63755214Y-81134071D01*
X63112357Y-80134071D02*
X63112357Y-80919785D01*
X63183785Y-81062642D01*
X63326642Y-81134071D01*
X63540928Y-81134071D01*
X63683785Y-81062642D01*
X63755214Y-80991214D01*
X64255214Y-80134071D02*
X64826642Y-80134071D01*
X64469500Y-79634071D02*
X64469500Y-80919785D01*
X64540928Y-81062642D01*
X64683785Y-81134071D01*
X64826642Y-81134071D01*
X65326642Y-81134071D02*
X65326642Y-80134071D01*
X65326642Y-79634071D02*
X65255214Y-79705500D01*
X65326642Y-79776928D01*
X65398071Y-79705500D01*
X65326642Y-79634071D01*
X65326642Y-79776928D01*
X66255214Y-81134071D02*
X66112357Y-81062642D01*
X66040928Y-80991214D01*
X65969500Y-80848357D01*
X65969500Y-80419785D01*
X66040928Y-80276928D01*
X66112357Y-80205500D01*
X66255214Y-80134071D01*
X66469500Y-80134071D01*
X66612357Y-80205500D01*
X66683785Y-80276928D01*
X66755214Y-80419785D01*
X66755214Y-80848357D01*
X66683785Y-80991214D01*
X66612357Y-81062642D01*
X66469500Y-81134071D01*
X66255214Y-81134071D01*
X67398071Y-80134071D02*
X67398071Y-81134071D01*
X67398071Y-80276928D02*
X67469500Y-80205500D01*
X67612357Y-80134071D01*
X67826642Y-80134071D01*
X67969500Y-80205500D01*
X68040928Y-80348357D01*
X68040928Y-81134071D01*
X69898071Y-81134071D02*
X69898071Y-79634071D01*
X70469500Y-79634071D01*
X70612357Y-79705500D01*
X70683785Y-79776928D01*
X70755214Y-79919785D01*
X70755214Y-80134071D01*
X70683785Y-80276928D01*
X70612357Y-80348357D01*
X70469500Y-80419785D01*
X69898071Y-80419785D01*
X72255214Y-80991214D02*
X72183785Y-81062642D01*
X71969500Y-81134071D01*
X71826642Y-81134071D01*
X71612357Y-81062642D01*
X71469500Y-80919785D01*
X71398071Y-80776928D01*
X71326642Y-80491214D01*
X71326642Y-80276928D01*
X71398071Y-79991214D01*
X71469500Y-79848357D01*
X71612357Y-79705500D01*
X71826642Y-79634071D01*
X71969500Y-79634071D01*
X72183785Y-79705500D01*
X72255214Y-79776928D01*
X73398071Y-80348357D02*
X73612357Y-80419785D01*
X73683785Y-80491214D01*
X73755214Y-80634071D01*
X73755214Y-80848357D01*
X73683785Y-80991214D01*
X73612357Y-81062642D01*
X73469500Y-81134071D01*
X72898071Y-81134071D01*
X72898071Y-79634071D01*
X73398071Y-79634071D01*
X73540928Y-79705500D01*
X73612357Y-79776928D01*
X73683785Y-79919785D01*
X73683785Y-80062642D01*
X73612357Y-80205500D01*
X73540928Y-80276928D01*
X73398071Y-80348357D01*
X72898071Y-80348357D01*
X98552095Y-79764000D02*
X98456857Y-79716380D01*
X98314000Y-79716380D01*
X98171142Y-79764000D01*
X98075904Y-79859238D01*
X98028285Y-79954476D01*
X97980666Y-80144952D01*
X97980666Y-80287809D01*
X98028285Y-80478285D01*
X98075904Y-80573523D01*
X98171142Y-80668761D01*
X98314000Y-80716380D01*
X98409238Y-80716380D01*
X98552095Y-80668761D01*
X98599714Y-80621142D01*
X98599714Y-80287809D01*
X98409238Y-80287809D01*
X99028285Y-80716380D02*
X99028285Y-79716380D01*
X99599714Y-80716380D01*
X99599714Y-79716380D01*
X100075904Y-80716380D02*
X100075904Y-79716380D01*
X100314000Y-79716380D01*
X100456857Y-79764000D01*
X100552095Y-79859238D01*
X100599714Y-79954476D01*
X100647333Y-80144952D01*
X100647333Y-80287809D01*
X100599714Y-80478285D01*
X100552095Y-80573523D01*
X100456857Y-80668761D01*
X100314000Y-80716380D01*
X100075904Y-80716380D01*
X75994142Y-80430714D02*
X76232238Y-81097380D01*
X76470333Y-80430714D01*
X77375095Y-81097380D02*
X76803666Y-81097380D01*
X77089380Y-81097380D02*
X77089380Y-80097380D01*
X76994142Y-80240238D01*
X76898904Y-80335476D01*
X76803666Y-80383095D01*
X77803666Y-81002142D02*
X77851285Y-81049761D01*
X77803666Y-81097380D01*
X77756047Y-81049761D01*
X77803666Y-81002142D01*
X77803666Y-81097380D01*
X78470333Y-80097380D02*
X78565571Y-80097380D01*
X78660809Y-80145000D01*
X78708428Y-80192619D01*
X78756047Y-80287857D01*
X78803666Y-80478333D01*
X78803666Y-80716428D01*
X78756047Y-80906904D01*
X78708428Y-81002142D01*
X78660809Y-81049761D01*
X78565571Y-81097380D01*
X78470333Y-81097380D01*
X78375095Y-81049761D01*
X78327476Y-81002142D01*
X78279857Y-80906904D01*
X78232238Y-80716428D01*
X78232238Y-80478333D01*
X78279857Y-80287857D01*
X78327476Y-80192619D01*
X78375095Y-80145000D01*
X78470333Y-80097380D01*
X79851285Y-80097380D02*
X80184619Y-81097380D01*
X80517952Y-80097380D01*
X80851285Y-81097380D02*
X80851285Y-80097380D01*
X81422714Y-81097380D02*
X80994142Y-80525952D01*
X81422714Y-80097380D02*
X80851285Y-80668809D01*
X82327476Y-80097380D02*
X81851285Y-80097380D01*
X81803666Y-80573571D01*
X81851285Y-80525952D01*
X81946523Y-80478333D01*
X82184619Y-80478333D01*
X82279857Y-80525952D01*
X82327476Y-80573571D01*
X82375095Y-80668809D01*
X82375095Y-80906904D01*
X82327476Y-81002142D01*
X82279857Y-81049761D01*
X82184619Y-81097380D01*
X81946523Y-81097380D01*
X81851285Y-81049761D01*
X81803666Y-81002142D01*
X83279857Y-81097380D02*
X82803666Y-81097380D01*
X82803666Y-80097380D01*
X83613190Y-81097380D02*
X83613190Y-80097380D01*
X84184619Y-81097380D01*
X84184619Y-80097380D01*
X93472095Y-79764000D02*
X93376857Y-79716380D01*
X93234000Y-79716380D01*
X93091142Y-79764000D01*
X92995904Y-79859238D01*
X92948285Y-79954476D01*
X92900666Y-80144952D01*
X92900666Y-80287809D01*
X92948285Y-80478285D01*
X92995904Y-80573523D01*
X93091142Y-80668761D01*
X93234000Y-80716380D01*
X93329238Y-80716380D01*
X93472095Y-80668761D01*
X93519714Y-80621142D01*
X93519714Y-80287809D01*
X93329238Y-80287809D01*
X93948285Y-80716380D02*
X93948285Y-79716380D01*
X94519714Y-80716380D01*
X94519714Y-79716380D01*
X94995904Y-80716380D02*
X94995904Y-79716380D01*
X95234000Y-79716380D01*
X95376857Y-79764000D01*
X95472095Y-79859238D01*
X95519714Y-79954476D01*
X95567333Y-80144952D01*
X95567333Y-80287809D01*
X95519714Y-80478285D01*
X95472095Y-80573523D01*
X95376857Y-80668761D01*
X95234000Y-80716380D01*
X94995904Y-80716380D01*
%TO.C,R2*%
X48967380Y-61380666D02*
X48491190Y-61714000D01*
X48967380Y-61952095D02*
X47967380Y-61952095D01*
X47967380Y-61571142D01*
X48015000Y-61475904D01*
X48062619Y-61428285D01*
X48157857Y-61380666D01*
X48300714Y-61380666D01*
X48395952Y-61428285D01*
X48443571Y-61475904D01*
X48491190Y-61571142D01*
X48491190Y-61952095D01*
X48062619Y-60999714D02*
X48015000Y-60952095D01*
X47967380Y-60856857D01*
X47967380Y-60618761D01*
X48015000Y-60523523D01*
X48062619Y-60475904D01*
X48157857Y-60428285D01*
X48253095Y-60428285D01*
X48395952Y-60475904D01*
X48967380Y-61047333D01*
X48967380Y-60428285D01*
%TO.C,R1*%
X54570333Y-67128380D02*
X54237000Y-66652190D01*
X53998904Y-67128380D02*
X53998904Y-66128380D01*
X54379857Y-66128380D01*
X54475095Y-66176000D01*
X54522714Y-66223619D01*
X54570333Y-66318857D01*
X54570333Y-66461714D01*
X54522714Y-66556952D01*
X54475095Y-66604571D01*
X54379857Y-66652190D01*
X53998904Y-66652190D01*
X55522714Y-67128380D02*
X54951285Y-67128380D01*
X55237000Y-67128380D02*
X55237000Y-66128380D01*
X55141761Y-66271238D01*
X55046523Y-66366476D01*
X54951285Y-66414095D01*
%TO.C,J6*%
X49704666Y-72985380D02*
X49704666Y-73699666D01*
X49657047Y-73842523D01*
X49561809Y-73937761D01*
X49418952Y-73985380D01*
X49323714Y-73985380D01*
X50609428Y-72985380D02*
X50418952Y-72985380D01*
X50323714Y-73033000D01*
X50276095Y-73080619D01*
X50180857Y-73223476D01*
X50133238Y-73413952D01*
X50133238Y-73794904D01*
X50180857Y-73890142D01*
X50228476Y-73937761D01*
X50323714Y-73985380D01*
X50514190Y-73985380D01*
X50609428Y-73937761D01*
X50657047Y-73890142D01*
X50704666Y-73794904D01*
X50704666Y-73556809D01*
X50657047Y-73461571D01*
X50609428Y-73413952D01*
X50514190Y-73366333D01*
X50323714Y-73366333D01*
X50228476Y-73413952D01*
X50180857Y-73461571D01*
X50133238Y-73556809D01*
%TO.C,J1*%
X71261666Y-66999380D02*
X71261666Y-67713666D01*
X71214047Y-67856523D01*
X71118809Y-67951761D01*
X70975952Y-67999380D01*
X70880714Y-67999380D01*
X72261666Y-67999380D02*
X71690238Y-67999380D01*
X71975952Y-67999380D02*
X71975952Y-66999380D01*
X71880714Y-67142238D01*
X71785476Y-67237476D01*
X71690238Y-67285095D01*
%TO.C,J5*%
X96440666Y-67157380D02*
X96440666Y-67871666D01*
X96393047Y-68014523D01*
X96297809Y-68109761D01*
X96154952Y-68157380D01*
X96059714Y-68157380D01*
X97393047Y-67157380D02*
X96916857Y-67157380D01*
X96869238Y-67633571D01*
X96916857Y-67585952D01*
X97012095Y-67538333D01*
X97250190Y-67538333D01*
X97345428Y-67585952D01*
X97393047Y-67633571D01*
X97440666Y-67728809D01*
X97440666Y-67966904D01*
X97393047Y-68062142D01*
X97345428Y-68109761D01*
X97250190Y-68157380D01*
X97012095Y-68157380D01*
X96916857Y-68109761D01*
X96869238Y-68062142D01*
%TO.C,F1*%
X71167666Y-69892571D02*
X70834333Y-69892571D01*
X70834333Y-70416380D02*
X70834333Y-69416380D01*
X71310523Y-69416380D01*
X72215285Y-70416380D02*
X71643857Y-70416380D01*
X71929571Y-70416380D02*
X71929571Y-69416380D01*
X71834333Y-69559238D01*
X71739095Y-69654476D01*
X71643857Y-69702095D01*
%TO.C,F2*%
X121840666Y-69892571D02*
X121507333Y-69892571D01*
X121507333Y-70416380D02*
X121507333Y-69416380D01*
X121983523Y-69416380D01*
X122316857Y-69511619D02*
X122364476Y-69464000D01*
X122459714Y-69416380D01*
X122697809Y-69416380D01*
X122793047Y-69464000D01*
X122840666Y-69511619D01*
X122888285Y-69606857D01*
X122888285Y-69702095D01*
X122840666Y-69844952D01*
X122269238Y-70416380D01*
X122888285Y-70416380D01*
%TO.C,J3*%
X113933666Y-66999380D02*
X113933666Y-67713666D01*
X113886047Y-67856523D01*
X113790809Y-67951761D01*
X113647952Y-67999380D01*
X113552714Y-67999380D01*
X114314619Y-66999380D02*
X114933666Y-66999380D01*
X114600333Y-67380333D01*
X114743190Y-67380333D01*
X114838428Y-67427952D01*
X114886047Y-67475571D01*
X114933666Y-67570809D01*
X114933666Y-67808904D01*
X114886047Y-67904142D01*
X114838428Y-67951761D01*
X114743190Y-67999380D01*
X114457476Y-67999380D01*
X114362238Y-67951761D01*
X114314619Y-67904142D01*
%TO.C,J2*%
X92597666Y-66999380D02*
X92597666Y-67713666D01*
X92550047Y-67856523D01*
X92454809Y-67951761D01*
X92311952Y-67999380D01*
X92216714Y-67999380D01*
X93026238Y-67094619D02*
X93073857Y-67047000D01*
X93169095Y-66999380D01*
X93407190Y-66999380D01*
X93502428Y-67047000D01*
X93550047Y-67094619D01*
X93597666Y-67189857D01*
X93597666Y-67285095D01*
X93550047Y-67427952D01*
X92978619Y-67999380D01*
X93597666Y-67999380D01*
%TO.C,J4*%
X135269666Y-66999380D02*
X135269666Y-67713666D01*
X135222047Y-67856523D01*
X135126809Y-67951761D01*
X134983952Y-67999380D01*
X134888714Y-67999380D01*
X136174428Y-67332714D02*
X136174428Y-67999380D01*
X135936333Y-66951761D02*
X135698238Y-67666047D01*
X136317285Y-67666047D01*
D11*
%TO.C,R2*%
X49430000Y-61441064D02*
X49430000Y-60986936D01*
X50900000Y-61441064D02*
X50900000Y-60986936D01*
%TO.C,R1*%
X54509936Y-67591000D02*
X54964064Y-67591000D01*
X54509936Y-69061000D02*
X54964064Y-69061000D01*
%TO.C,J6*%
X51495000Y-67056000D02*
X51495000Y-72196000D01*
X48835000Y-67056000D02*
X51495000Y-67056000D01*
X48835000Y-65786000D02*
X48835000Y-64456000D01*
X48835000Y-72196000D02*
X51495000Y-72196000D01*
X48835000Y-64456000D02*
X50165000Y-64456000D01*
X48835000Y-67056000D02*
X48835000Y-72196000D01*
D12*
%TO.C,J1*%
X54770000Y-65812000D02*
X54770000Y-50412000D01*
X74770000Y-65812000D02*
X68770000Y-65812000D01*
X74770000Y-50412000D02*
X54770000Y-50412000D01*
X74770000Y-50412000D02*
X74770000Y-65812000D01*
X60770000Y-65812000D02*
X54770000Y-65812000D01*
D13*
X59826000Y-66696000D02*
G75*
G03*
X59826000Y-66696000I-100000J0D01*
G01*
D11*
%TO.C,J5*%
X86314000Y-78125000D02*
X86314000Y-78865000D01*
X86554000Y-78065000D02*
X106994000Y-78065000D01*
X93007000Y-74988000D02*
X92960000Y-75034000D01*
X105669000Y-72896000D02*
X105622000Y-72942000D01*
X86554000Y-68704000D02*
X106994000Y-68704000D01*
X106994000Y-68704000D02*
X106994000Y-78625000D01*
X86314000Y-78865000D02*
X86814000Y-78865000D01*
X86554000Y-76565000D02*
X106994000Y-76565000D01*
X103360000Y-75204000D02*
X103325000Y-75239000D01*
X95304000Y-72690000D02*
X95269000Y-72726000D01*
X98280000Y-75204000D02*
X98245000Y-75239000D01*
X100589000Y-72896000D02*
X100542000Y-72942000D01*
X86554000Y-68704000D02*
X86554000Y-78625000D01*
X95509000Y-72896000D02*
X95462000Y-72942000D01*
X103167000Y-74988000D02*
X103120000Y-75034000D01*
X93200000Y-75204000D02*
X93165000Y-75239000D01*
X98087000Y-74988000D02*
X98040000Y-75034000D01*
X105464000Y-72690000D02*
X105429000Y-72726000D01*
X86554000Y-78625000D02*
X106994000Y-78625000D01*
X100384000Y-72690000D02*
X100349000Y-72726000D01*
X86554000Y-71664000D02*
X106994000Y-71664000D01*
X88470000Y-75500000D02*
G75*
G03*
X89182805Y-75645253I683999J1535001D01*
G01*
X90689001Y-74649000D02*
G75*
G03*
X90689427Y-73281958I-1535001J684000D01*
G01*
X89838000Y-72430000D02*
G75*
G03*
X88470958Y-72429573I-684001J-1534993D01*
G01*
X89154000Y-75645000D02*
G75*
G03*
X89837318Y-75499756I0J1680000D01*
G01*
X87619000Y-73281000D02*
G75*
G03*
X87618573Y-74648042I1534993J-684001D01*
G01*
X106074000Y-73965000D02*
G75*
G03*
X106074000Y-73965000I-1680000J0D01*
G01*
X100994000Y-73965000D02*
G75*
G03*
X100994000Y-73965000I-1680000J0D01*
G01*
X95914000Y-73965000D02*
G75*
G03*
X95914000Y-73965000I-1680000J0D01*
G01*
%TO.C,F1*%
X59501000Y-76614000D02*
X59501000Y-71214000D01*
X83501000Y-76614000D02*
X59501000Y-76614000D01*
X59501000Y-71214000D02*
X83501000Y-71214000D01*
X83501000Y-71214000D02*
X83501000Y-76614000D01*
%TO.C,F2*%
X134174000Y-71214000D02*
X134174000Y-76614000D01*
X110174000Y-76614000D02*
X110174000Y-71214000D01*
X110174000Y-71214000D02*
X134174000Y-71214000D01*
X134174000Y-76614000D02*
X110174000Y-76614000D01*
D12*
%TO.C,J3*%
X117442000Y-65812000D02*
X111442000Y-65812000D01*
X117442000Y-50412000D02*
X97442000Y-50412000D01*
X103442000Y-65812000D02*
X97442000Y-65812000D01*
X117442000Y-50412000D02*
X117442000Y-65812000D01*
X97442000Y-65812000D02*
X97442000Y-50412000D01*
D13*
X102498000Y-66696000D02*
G75*
G03*
X102498000Y-66696000I-100000J0D01*
G01*
D12*
%TO.C,J2*%
X82106000Y-65812000D02*
X76106000Y-65812000D01*
X96106000Y-50412000D02*
X96106000Y-65812000D01*
X76106000Y-65812000D02*
X76106000Y-50412000D01*
X96106000Y-65812000D02*
X90106000Y-65812000D01*
X96106000Y-50412000D02*
X76106000Y-50412000D01*
D13*
X81162000Y-66696000D02*
G75*
G03*
X81162000Y-66696000I-100000J0D01*
G01*
D12*
%TO.C,J4*%
X138778000Y-50412000D02*
X138778000Y-65812000D01*
X138778000Y-65812000D02*
X132778000Y-65812000D01*
X124778000Y-65812000D02*
X118778000Y-65812000D01*
X118778000Y-65812000D02*
X118778000Y-50412000D01*
X138778000Y-50412000D02*
X118778000Y-50412000D01*
D13*
X123834000Y-66696000D02*
G75*
G03*
X123834000Y-66696000I-100000J0D01*
G01*
%TD*%
M02*
